<svg width="100" height="102" viewBox="0 0 211 102" fill="none" xmlns="http://www.w3.org/2000/svg">
<path d="M82.6147 10.0537C82.2749 9.94043 81.8029 9.88379 81.1987 9.88379C80.5946 9.88379 80.1131 9.94043 79.7544 10.0537C79.4051 10.167 79.1266 10.3322 78.9189 10.5493C78.5602 10.9364 78.3809 11.5688 78.3809 12.4468V14.3867H82.0342V16.5532H78.3809V29H75.5488V16.5532H73.793V15.2222L75.5488 14.3867V12.8291C75.5488 11.8379 75.6338 11.0921 75.8037 10.5918C75.9831 10.0915 76.1955 9.67611 76.4409 9.3457C76.6864 9.0153 77.0168 8.72738 77.4321 8.48193C78.3101 7.96273 79.542 7.70312 81.1279 7.70312C81.7887 7.70312 82.2843 7.74089 82.6147 7.81641V10.0537ZM95.3294 16.978C94.8102 16.827 94.1872 16.7515 93.4603 16.7515C92.7428 16.7515 92.1528 16.827 91.6903 16.978C91.2277 17.1196 90.8218 17.2943 90.4725 17.502C89.8306 17.8796 89.3633 18.3044 89.0706 18.7764V29H86.2386V14.3867H88.9574L89.0706 16.4116C89.7787 15.5243 90.8123 14.8587 92.1717 14.415C92.6626 14.2451 93.2243 14.1602 93.8568 14.1602C94.4893 14.1602 94.9801 14.2074 95.3294 14.3018V16.978ZM98.3444 21.665C98.3444 19.3711 99.076 17.5114 100.539 16.0859C101.908 14.7549 103.603 14.0894 105.623 14.0894C107.605 14.0894 109.262 14.7549 110.593 16.0859C112.009 17.502 112.717 19.3617 112.717 21.665C112.717 23.959 112.004 25.8092 110.579 27.2158C109.229 28.5563 107.572 29.2266 105.609 29.2266C103.617 29.2266 101.927 28.5563 100.539 27.2158C99.076 25.8092 98.3444 23.959 98.3444 21.665ZM101.29 21.665C101.29 24.0817 102.064 25.7243 103.612 26.5928C104.16 26.8949 104.816 27.0459 105.58 27.0459C106.345 27.0459 106.992 26.8949 107.52 26.5928C108.049 26.2812 108.483 25.8753 108.823 25.375C109.455 24.4121 109.772 23.1755 109.772 21.665C109.772 19.2673 109.012 17.6247 107.492 16.7373C106.963 16.4258 106.331 16.27 105.594 16.27C104.858 16.27 104.216 16.4258 103.669 16.7373C103.131 17.0394 102.687 17.4406 102.338 17.9409C101.639 18.9227 101.29 20.1641 101.29 21.665ZM120.249 18.0259L120.263 29H117.431V14.3867H120.037L120.235 15.9868C121.273 15.1183 122.482 14.5519 123.86 14.2876C124.304 14.2026 124.738 14.1602 125.163 14.1602C126.928 14.1602 128.259 14.9059 129.156 16.3975C130.798 14.9059 132.516 14.1602 134.31 14.1602C136.085 14.1602 137.378 14.6935 138.19 15.7603C139.002 16.8459 139.408 18.6395 139.408 21.1411V29H136.576V21.2402C136.576 18.7858 135.986 17.3179 134.806 16.8364C134.409 16.6759 133.947 16.5957 133.418 16.5957C132.153 16.5957 130.992 17.0488 129.935 17.9551V29H127.103V21.127C127.103 19.4466 126.852 18.2666 126.352 17.5869C125.871 16.9261 125.007 16.5957 123.761 16.5957C122.524 16.5957 121.354 17.0724 120.249 18.0259Z" fill="#67788A"/>
<path d="M58.7344 84H54.8594C54.7656 84 54.7135 83.9479 54.7031 83.8438L50.2812 61.8594C50.2604 61.776 50.3021 61.7344 50.4062 61.7344H54.0312C54.1146 61.7344 54.1667 61.776 54.1875 61.8594L56.8125 76.5156L59.375 61.8594C59.3958 61.776 59.4479 61.7344 59.5312 61.7344H63.1094C63.224 61.7344 63.2656 61.776 63.2344 61.8594L58.8906 83.8438C58.8802 83.9479 58.8281 84 58.7344 84ZM68.8906 84H65.2656C65.1615 84 65.1094 83.9479 65.1094 83.8438L65.1406 61.8594C65.1406 61.776 65.1823 61.7344 65.2656 61.7344H68.8594C68.9427 61.7344 68.9844 61.776 68.9844 61.8594L69.0156 83.8438C69.0156 83.9479 68.974 84 68.8906 84ZM82.2969 84H71.9531C71.8698 84 71.8281 83.9479 71.8281 83.8438L71.8594 61.8906C71.8594 61.7865 71.9115 61.7344 72.0156 61.7344H75.5781C75.6823 61.7344 75.7344 61.7865 75.7344 61.8906L75.7031 80.0625H82.2969C82.401 80.0625 82.4531 80.1146 82.4531 80.2188V83.8438C82.4531 83.9479 82.401 84 82.2969 84ZM95.0156 84H84.6719C84.5885 84 84.5469 83.9479 84.5469 83.8438L84.5781 61.8906C84.5781 61.7865 84.6302 61.7344 84.7344 61.7344H88.2969C88.401 61.7344 88.4531 61.7865 88.4531 61.8906L88.4219 80.0625H95.0156C95.1198 80.0625 95.1719 80.1146 95.1719 80.2188V83.8438C95.1719 83.9479 95.1198 84 95.0156 84ZM96.1875 83.8438L100.156 61.8594C100.177 61.776 100.229 61.7344 100.312 61.7344H104.953C105.036 61.7344 105.089 61.776 105.109 61.8594L108.922 83.8438C108.932 83.9479 108.891 84 108.797 84H105.25C105.146 84 105.089 83.9479 105.078 83.8438L104.734 81.5H100.375L100.031 83.8438C100.021 83.9479 99.9688 84 99.875 84H96.3125C96.2292 84 96.1875 83.9479 96.1875 83.8438ZM102.453 69.0938L101.016 78.0781H104.094L102.781 69.0938L102.594 67.9062L102.453 69.0938ZM116.781 84.3125C115.625 84.3125 114.583 84.026 113.656 83.4531C112.719 82.8802 111.964 82.1094 111.391 81.1406C110.828 80.1719 110.547 79.0885 110.547 77.8906V67.75C110.547 66.5833 110.833 65.5208 111.406 64.5625C111.969 63.5938 112.724 62.8229 113.672 62.25C114.62 61.6667 115.656 61.375 116.781 61.375C117.958 61.375 119.021 61.6562 119.969 62.2188C120.917 62.7917 121.667 63.5573 122.219 64.5156C122.781 65.474 123.062 66.5521 123.062 67.75V69.2188C123.062 69.3021 123.01 69.3438 122.906 69.3438H119.312C119.229 69.3438 119.188 69.3021 119.188 69.2188V68C119.188 67.1875 118.958 66.5156 118.5 65.9844C118.042 65.4531 117.469 65.1875 116.781 65.1875C116.167 65.1875 115.62 65.4427 115.141 65.9531C114.661 66.4635 114.422 67.0625 114.422 67.75V77.8906C114.422 78.5885 114.656 79.1927 115.125 79.7031C115.594 80.2031 116.146 80.4531 116.781 80.4531C117.469 80.4531 118.042 80.2083 118.5 79.7188C118.958 79.2188 119.188 78.6094 119.188 77.8906V76.3125H116.953C116.839 76.3125 116.781 76.2604 116.781 76.1562V72.5781C116.781 72.474 116.839 72.4219 116.953 72.4219H122.938C123.021 72.4219 123.062 72.474 123.062 72.5781V77.8906C123.062 79.0885 122.781 80.1719 122.219 81.1406C121.646 82.1094 120.891 82.8802 119.953 83.4531C119.016 84.026 117.958 84.3125 116.781 84.3125ZM135.797 84H125.453C125.37 84 125.328 83.9479 125.328 83.8438L125.359 61.8594C125.359 61.776 125.401 61.7344 125.484 61.7344H135.766C135.849 61.7344 135.891 61.7865 135.891 61.8906V65.4688C135.891 65.5521 135.849 65.5938 135.766 65.5938H129.203V70.5938H135.766C135.849 70.5938 135.891 70.6354 135.891 70.7188L135.922 74.3438C135.922 74.4271 135.88 74.4688 135.797 74.4688H129.203V80.0625H135.797C135.88 80.0625 135.922 80.1146 135.922 80.2188V83.875C135.922 83.9583 135.88 84 135.797 84ZM144.625 84.3125C143.469 84.3125 142.427 84.026 141.5 83.4531C140.562 82.8802 139.807 82.1094 139.234 81.1406C138.672 80.1719 138.391 79.0885 138.391 77.8906V67.75C138.391 66.5833 138.677 65.5208 139.25 64.5625C139.812 63.5938 140.568 62.8229 141.516 62.25C142.464 61.6667 143.5 61.375 144.625 61.375C145.802 61.375 146.865 61.6562 147.812 62.2188C148.76 62.7917 149.51 63.5573 150.062 64.5156C150.625 65.474 150.906 66.5521 150.906 67.75V69.2188C150.906 69.3021 150.854 69.3438 150.75 69.3438H147.156C147.073 69.3438 147.031 69.3021 147.031 69.2188V68C147.031 67.1875 146.802 66.5156 146.344 65.9844C145.885 65.4531 145.312 65.1875 144.625 65.1875C144.01 65.1875 143.464 65.4427 142.984 65.9531C142.505 66.4635 142.266 67.0625 142.266 67.75V77.8906C142.266 78.5885 142.5 79.1927 142.969 79.7031C143.438 80.2031 143.99 80.4531 144.625 80.4531C145.312 80.4531 145.885 80.2083 146.344 79.7188C146.802 79.2188 147.031 78.6094 147.031 77.8906V76.3125H144.797C144.682 76.3125 144.625 76.2604 144.625 76.1562V72.5781C144.625 72.474 144.682 72.4219 144.797 72.4219H150.781C150.865 72.4219 150.906 72.474 150.906 72.5781V77.8906C150.906 79.0885 150.625 80.1719 150.062 81.1406C149.49 82.1094 148.734 82.8802 147.797 83.4531C146.859 84.026 145.802 84.3125 144.625 84.3125ZM156.922 84H153.297C153.214 84 153.172 83.9479 153.172 83.8438L153.234 61.8594C153.234 61.776 153.276 61.7344 153.359 61.7344H159.828C160.984 61.7344 162.047 62.0156 163.016 62.5781C163.984 63.1406 164.755 63.8958 165.328 64.8438C165.911 65.7917 166.203 66.8646 166.203 68.0625C166.203 68.8438 166.083 69.5521 165.844 70.1875C165.604 70.8229 165.323 71.3594 165 71.7969C164.688 72.2344 164.401 72.5573 164.141 72.7656C165.297 74.0469 165.875 75.5521 165.875 77.2812L165.906 83.8438C165.906 83.9479 165.854 84 165.75 84H162.125C162.042 84 162 83.9688 162 83.9062V77.2812C162 76.5104 161.729 75.8438 161.188 75.2812C160.646 74.7188 159.979 74.4375 159.188 74.4375H157.078L157.047 83.8438C157.047 83.9479 157.005 84 156.922 84ZM159.828 65.5625H157.078V70.5938H159.828C160.484 70.5938 161.068 70.349 161.578 69.8594C162.099 69.3698 162.359 68.7708 162.359 68.0625C162.359 67.3854 162.109 66.8021 161.609 66.3125C161.109 65.8125 160.516 65.5625 159.828 65.5625ZM166.875 83.8438L170.844 61.8594C170.865 61.776 170.917 61.7344 171 61.7344H175.641C175.724 61.7344 175.776 61.776 175.797 61.8594L179.609 83.8438C179.62 83.9479 179.578 84 179.484 84H175.938C175.833 84 175.776 83.9479 175.766 83.8438L175.422 81.5H171.062L170.719 83.8438C170.708 83.9479 170.656 84 170.562 84H167C166.917 84 166.875 83.9479 166.875 83.8438ZM173.141 69.0938L171.703 78.0781H174.781L173.469 69.0938L173.281 67.9062L173.141 69.0938ZM185.359 84H181.734C181.651 84 181.609 83.9479 181.609 83.8438L181.672 61.8594C181.672 61.776 181.714 61.7344 181.797 61.7344H185.703C185.786 61.7344 185.859 61.776 185.922 61.8594L188.844 66.0781L191.75 61.8594C191.812 61.776 191.891 61.7344 191.984 61.7344H195.906C196 61.7344 196.047 61.776 196.047 61.8594L196.109 83.8438C196.109 83.9479 196.068 84 195.984 84H192.359C192.276 84 192.234 83.9479 192.234 83.8438L192.203 67.5156L188.844 72.3906L185.516 67.5156L185.484 83.8438C185.484 83.9479 185.443 84 185.359 84ZM209.266 84H198.922C198.839 84 198.797 83.9479 198.797 83.8438L198.828 61.8594C198.828 61.776 198.87 61.7344 198.953 61.7344H209.234C209.318 61.7344 209.359 61.7865 209.359 61.8906V65.4688C209.359 65.5521 209.318 65.5938 209.234 65.5938H202.672V70.5938H209.234C209.318 70.5938 209.359 70.6354 209.359 70.7188L209.391 74.3438C209.391 74.4271 209.349 74.4688 209.266 74.4688H202.672V80.0625H209.266C209.349 80.0625 209.391 80.1146 209.391 80.2188V83.875C209.391 83.9583 209.349 84 209.266 84Z" fill="url(#paint0_linear_3_74)"/>
<path d="M4 91.8247C4 91.8247 5.6899 40.6113 16.6899 64.2187C27.6899 87.8261 41.1899 85.3247 41.1899 85.3247C41.1899 85.3247 31.1899 96.9327 35.6899 68.8247C40.1899 40.7167 4 91.8247 4 91.8247Z" stroke="url(#paint1_linear_3_74)" stroke-width="6"/>
<defs>
<linearGradient id="paint0_linear_3_74" x1="211" y1="69" x2="50" y2="69" gradientUnits="userSpaceOnUse">
<stop stop-color="#D801BB"/>
<stop offset="0.276042" stop-color="#ED018D"/>
<stop offset="0.56133" stop-color="#FB0172"/>
<stop offset="1" stop-color="#FF7107"/>
</linearGradient>
<linearGradient id="paint1_linear_3_74" x1="52.5" y1="75" x2="4" y2="75" gradientUnits="userSpaceOnUse">
<stop stop-color="#FF333D"/>
<stop offset="1" stop-color="#FF7107"/>
</linearGradient>
</defs>
</svg>
