<svg width="100" height="102" viewBox="0 0 195 103" fill="none" xmlns="http://www.w3.org/2000/svg">
<path d="M74.6147 10.0537C74.2749 9.94043 73.8029 9.88379 73.1987 9.88379C72.5946 9.88379 72.1131 9.94043 71.7544 10.0537C71.4051 10.167 71.1266 10.3322 70.9189 10.5493C70.5602 10.9364 70.3809 11.5688 70.3809 12.4468V14.3867H74.0342V16.5532H70.3809V29H67.5488V16.5532H65.793V15.2222L67.5488 14.3867V12.8291C67.5488 11.8379 67.6338 11.0921 67.8037 10.5918C67.9831 10.0915 68.1955 9.67611 68.4409 9.3457C68.6864 9.0153 69.0168 8.72738 69.4321 8.48193C70.3101 7.96273 71.542 7.70312 73.1279 7.70312C73.7887 7.70312 74.2843 7.74089 74.6147 7.81641V10.0537ZM87.3294 16.978C86.8102 16.827 86.1872 16.7515 85.4603 16.7515C84.7428 16.7515 84.1528 16.827 83.6903 16.978C83.2277 17.1196 82.8218 17.2943 82.4725 17.502C81.8306 17.8796 81.3633 18.3044 81.0706 18.7764V29H78.2386V14.3867H80.9574L81.0706 16.4116C81.7787 15.5243 82.8123 14.8587 84.1717 14.415C84.6626 14.2451 85.2243 14.1602 85.8568 14.1602C86.4893 14.1602 86.9801 14.2074 87.3294 14.3018V16.978ZM90.3444 21.665C90.3444 19.3711 91.076 17.5114 92.5392 16.0859C93.9081 14.7549 95.6026 14.0894 97.6227 14.0894C99.6052 14.0894 101.262 14.7549 102.593 16.0859C104.009 17.502 104.717 19.3617 104.717 21.665C104.717 23.959 104.004 25.8092 102.579 27.2158C101.229 28.5563 99.5721 29.2266 97.6086 29.2266C95.6167 29.2266 93.9269 28.5563 92.5392 27.2158C91.076 25.8092 90.3444 23.959 90.3444 21.665ZM93.2897 21.665C93.2897 24.0817 94.0638 25.7243 95.612 26.5928C96.1595 26.8949 96.8156 27.0459 97.5803 27.0459C98.3449 27.0459 98.9915 26.8949 99.5202 26.5928C100.049 26.2812 100.483 25.8753 100.823 25.375C101.455 24.4121 101.772 23.1755 101.772 21.665C101.772 19.2673 101.012 17.6247 99.4919 16.7373C98.9632 16.4258 98.3307 16.27 97.5944 16.27C96.8581 16.27 96.2162 16.4258 95.6686 16.7373C95.1305 17.0394 94.6869 17.4406 94.3376 17.9409C93.639 18.9227 93.2897 20.1641 93.2897 21.665ZM112.249 18.0259L112.263 29H109.431V14.3867H112.037L112.235 15.9868C113.273 15.1183 114.482 14.5519 115.86 14.2876C116.304 14.2026 116.738 14.1602 117.163 14.1602C118.928 14.1602 120.259 14.9059 121.156 16.3975C122.798 14.9059 124.516 14.1602 126.31 14.1602C128.085 14.1602 129.378 14.6935 130.19 15.7603C131.002 16.8459 131.408 18.6395 131.408 21.1411V29H128.576V21.2402C128.576 18.7858 127.986 17.3179 126.806 16.8364C126.409 16.6759 125.947 16.5957 125.418 16.5957C124.153 16.5957 122.992 17.0488 121.935 17.9551V29H119.103V21.127C119.103 19.4466 118.852 18.2666 118.352 17.5869C117.871 16.9261 117.007 16.5957 115.761 16.5957C114.524 16.5957 113.354 17.0724 112.249 18.0259Z" fill="#67788A"/>
<path d="M55.1788 84H51.3038C51.2101 84 51.158 83.9479 51.1476 83.8438L46.7257 61.8594C46.7049 61.776 46.7465 61.7344 46.8507 61.7344H50.4757C50.559 61.7344 50.6111 61.776 50.6319 61.8594L53.2569 76.5156L55.8194 61.8594C55.8403 61.776 55.8924 61.7344 55.9757 61.7344H59.5538C59.6684 61.7344 59.7101 61.776 59.6788 61.8594L55.3351 83.8438C55.3247 83.9479 55.2726 84 55.1788 84ZM65.3351 84H61.7101C61.6059 84 61.5538 83.9479 61.5538 83.8438L61.5851 61.8594C61.5851 61.776 61.6267 61.7344 61.7101 61.7344H65.3038C65.3872 61.7344 65.4288 61.776 65.4288 61.8594L65.4601 83.8438C65.4601 83.9479 65.4184 84 65.3351 84ZM78.7413 84H68.3976C68.3142 84 68.2726 83.9479 68.2726 83.8438L68.3038 61.8906C68.3038 61.7865 68.3559 61.7344 68.4601 61.7344H72.0226C72.1267 61.7344 72.1788 61.7865 72.1788 61.8906L72.1476 80.0625H78.7413C78.8455 80.0625 78.8976 80.1146 78.8976 80.2188V83.8438C78.8976 83.9479 78.8455 84 78.7413 84ZM91.4601 84H81.1163C81.033 84 80.9913 83.9479 80.9913 83.8438L81.0226 61.8906C81.0226 61.7865 81.0747 61.7344 81.1788 61.7344H84.7413C84.8455 61.7344 84.8976 61.7865 84.8976 61.8906L84.8663 80.0625H91.4601C91.5642 80.0625 91.6163 80.1146 91.6163 80.2188V83.8438C91.6163 83.9479 91.5642 84 91.4601 84ZM92.6319 83.8438L96.6007 61.8594C96.6215 61.776 96.6736 61.7344 96.7569 61.7344H101.398C101.481 61.7344 101.533 61.776 101.554 61.8594L105.366 83.8438C105.377 83.9479 105.335 84 105.241 84H101.694C101.59 84 101.533 83.9479 101.523 83.8438L101.179 81.5H96.8194L96.4757 83.8438C96.4653 83.9479 96.4132 84 96.3194 84H92.7569C92.6736 84 92.6319 83.9479 92.6319 83.8438ZM98.8976 69.0938L97.4601 78.0781H100.538L99.2257 69.0938L99.0382 67.9062L98.8976 69.0938ZM113.226 84.3125C112.069 84.3125 111.028 84.026 110.101 83.4531C109.163 82.8802 108.408 82.1094 107.835 81.1406C107.273 80.1719 106.991 79.0885 106.991 77.8906V67.75C106.991 66.5833 107.278 65.5208 107.851 64.5625C108.413 63.5938 109.168 62.8229 110.116 62.25C111.064 61.6667 112.101 61.375 113.226 61.375C114.403 61.375 115.465 61.6562 116.413 62.2188C117.361 62.7917 118.111 63.5573 118.663 64.5156C119.226 65.474 119.507 66.5521 119.507 67.75V69.2188C119.507 69.3021 119.455 69.3438 119.351 69.3438H115.757C115.674 69.3438 115.632 69.3021 115.632 69.2188V68C115.632 67.1875 115.403 66.5156 114.944 65.9844C114.486 65.4531 113.913 65.1875 113.226 65.1875C112.611 65.1875 112.064 65.4427 111.585 65.9531C111.106 66.4635 110.866 67.0625 110.866 67.75V77.8906C110.866 78.5885 111.101 79.1927 111.569 79.7031C112.038 80.2031 112.59 80.4531 113.226 80.4531C113.913 80.4531 114.486 80.2083 114.944 79.7188C115.403 79.2188 115.632 78.6094 115.632 77.8906V76.3125H113.398C113.283 76.3125 113.226 76.2604 113.226 76.1562V72.5781C113.226 72.474 113.283 72.4219 113.398 72.4219H119.382C119.465 72.4219 119.507 72.474 119.507 72.5781V77.8906C119.507 79.0885 119.226 80.1719 118.663 81.1406C118.09 82.1094 117.335 82.8802 116.398 83.4531C115.46 84.026 114.403 84.3125 113.226 84.3125ZM132.241 84H121.898C121.814 84 121.773 83.9479 121.773 83.8438L121.804 61.8594C121.804 61.776 121.845 61.7344 121.929 61.7344H132.21C132.293 61.7344 132.335 61.7865 132.335 61.8906V65.4688C132.335 65.5521 132.293 65.5938 132.21 65.5938H125.648V70.5938H132.21C132.293 70.5938 132.335 70.6354 132.335 70.7188L132.366 74.3438C132.366 74.4271 132.325 74.4688 132.241 74.4688H125.648V80.0625H132.241C132.325 80.0625 132.366 80.1146 132.366 80.2188V83.875C132.366 83.9583 132.325 84 132.241 84ZM141.069 84.3125C139.913 84.3125 138.872 84.026 137.944 83.4531C137.007 82.8802 136.252 82.1094 135.679 81.1406C135.116 80.1719 134.835 79.0885 134.835 77.8906V67.75C134.835 66.5833 135.122 65.5208 135.694 64.5625C136.257 63.5938 137.012 62.8229 137.96 62.25C138.908 61.6667 139.944 61.375 141.069 61.375C142.247 61.375 143.309 61.6562 144.257 62.2188C145.205 62.7917 145.955 63.5573 146.507 64.5156C147.069 65.474 147.351 66.5521 147.351 67.75V69.2188C147.351 69.3021 147.299 69.3438 147.194 69.3438H143.601C143.517 69.3438 143.476 69.3021 143.476 69.2188V68C143.476 67.1875 143.247 66.5156 142.788 65.9844C142.33 65.4531 141.757 65.1875 141.069 65.1875C140.455 65.1875 139.908 65.4427 139.429 65.9531C138.95 66.4635 138.71 67.0625 138.71 67.75V77.8906C138.71 78.5885 138.944 79.1927 139.413 79.7031C139.882 80.2031 140.434 80.4531 141.069 80.4531C141.757 80.4531 142.33 80.2083 142.788 79.7188C143.247 79.2188 143.476 78.6094 143.476 77.8906V76.3125H141.241C141.127 76.3125 141.069 76.2604 141.069 76.1562V72.5781C141.069 72.474 141.127 72.4219 141.241 72.4219H147.226C147.309 72.4219 147.351 72.474 147.351 72.5781V77.8906C147.351 79.0885 147.069 80.1719 146.507 81.1406C145.934 82.1094 145.179 82.8802 144.241 83.4531C143.304 84.026 142.247 84.3125 141.069 84.3125ZM153.366 84H149.741C149.658 84 149.616 83.9479 149.616 83.8438L149.679 61.8594C149.679 61.776 149.72 61.7344 149.804 61.7344H156.273C157.429 61.7344 158.491 62.0156 159.46 62.5781C160.429 63.1406 161.2 63.8958 161.773 64.8438C162.356 65.7917 162.648 66.8646 162.648 68.0625C162.648 68.8438 162.528 69.5521 162.288 70.1875C162.049 70.8229 161.767 71.3594 161.444 71.7969C161.132 72.2344 160.845 72.5573 160.585 72.7656C161.741 74.0469 162.319 75.5521 162.319 77.2812L162.351 83.8438C162.351 83.9479 162.299 84 162.194 84H158.569C158.486 84 158.444 83.9688 158.444 83.9062V77.2812C158.444 76.5104 158.174 75.8438 157.632 75.2812C157.09 74.7188 156.424 74.4375 155.632 74.4375H153.523L153.491 83.8438C153.491 83.9479 153.45 84 153.366 84ZM156.273 65.5625H153.523V70.5938H156.273C156.929 70.5938 157.512 70.349 158.023 69.8594C158.543 69.3698 158.804 68.7708 158.804 68.0625C158.804 67.3854 158.554 66.8021 158.054 66.3125C157.554 65.8125 156.96 65.5625 156.273 65.5625ZM163.319 83.8438L167.288 61.8594C167.309 61.776 167.361 61.7344 167.444 61.7344H172.085C172.168 61.7344 172.22 61.776 172.241 61.8594L176.054 83.8438C176.064 83.9479 176.023 84 175.929 84H172.382C172.278 84 172.22 83.9479 172.21 83.8438L171.866 81.5H167.507L167.163 83.8438C167.153 83.9479 167.101 84 167.007 84H163.444C163.361 84 163.319 83.9479 163.319 83.8438ZM169.585 69.0938L168.148 78.0781H171.226L169.913 69.0938L169.726 67.9062L169.585 69.0938ZM181.804 84H178.179C178.095 84 178.054 83.9479 178.054 83.8438L178.116 61.8594C178.116 61.776 178.158 61.7344 178.241 61.7344H182.148C182.231 61.7344 182.304 61.776 182.366 61.8594L185.288 66.0781L188.194 61.8594C188.257 61.776 188.335 61.7344 188.429 61.7344H192.351C192.444 61.7344 192.491 61.776 192.491 61.8594L192.554 83.8438C192.554 83.9479 192.512 84 192.429 84H188.804C188.72 84 188.679 83.9479 188.679 83.8438L188.648 67.5156L185.288 72.3906L181.96 67.5156L181.929 83.8438C181.929 83.9479 181.887 84 181.804 84Z" fill="url(#paint0_linear_3_74)"/>
<path d="M4 91.8247C4 91.8247 5.55928 40.6113 15.709 64.2187C25.8588 87.8261 38.3153 85.3247 38.3153 85.3247C38.3153 85.3247 29.0882 96.9327 33.2404 68.8247C37.3926 40.7167 4 91.8247 4 91.8247Z" stroke="url(#paint1_linear_3_74)" stroke-width="6"/>
<defs>
<linearGradient id="paint0_linear_3_74" x1="195" y1="69" x2="46.4444" y2="69" gradientUnits="userSpaceOnUse">
<stop stop-color="#D801BB"/>
<stop offset="0.276042" stop-color="#ED018D"/>
<stop offset="0.56133" stop-color="#FB0172"/>
<stop offset="1" stop-color="#FF7107"/>
</linearGradient>
<linearGradient id="paint1_linear_3_74" x1="48.7512" y1="75" x2="4" y2="75" gradientUnits="userSpaceOnUse">
<stop stop-color="#FF333D"/>
<stop offset="1" stop-color="#FF7107"/>
</linearGradient>
</defs>
</svg>
