<svg width="160" height="47" viewBox="0 0 160 47" fill="none" xmlns="http://www.w3.org/2000/svg">
<path d="M13.296 32.352C13.04 32.352 12.832 32.304 12.672 32.208C12.512 32.144 12.448 31.984 12.48 31.728C12.48 31.632 12.528 31.488 12.624 31.296C12.72 31.104 12.784 30.96 12.816 30.864C12.976 30.416 13.12 29.968 13.248 29.52C13.376 29.04 13.504 28.592 13.632 28.176C14.08 26.416 14.496 24.672 14.88 22.944C15.264 21.184 15.568 19.424 15.792 17.664C15.92 16.64 16.08 15.264 16.272 13.536C16.464 11.776 16.56 10.08 16.56 8.448C16.56 7.808 16.544 7.216 16.512 6.672C16.48 6.096 16.4 5.584 16.272 5.136C15.216 5.136 14.16 5.136 13.104 5.136C12.048 5.104 11.008 5.088 9.984 5.088C9.504 5.088 8.832 5.12 7.968 5.184C7.136 5.248 6.272 5.392 5.376 5.616C4.512 5.84 3.792 6.208 3.216 6.72C2.64 7.232 2.384 7.92 2.448 8.784C2.48 9.04 2.576 9.392 2.736 9.84C2.896 10.256 3.008 10.512 3.072 10.608L2.544 10.992C2.352 10.64 2.112 10.24 1.824 9.792C1.536 9.312 1.28 8.848 1.056 8.4C0.832 7.952 0.704 7.616 0.672 7.392C0.64 7.072 0.656 6.656 0.72 6.144C0.784 5.632 1.04 5.184 1.488 4.8C1.968 4.384 2.624 4.112 3.456 3.984C4.32 3.856 5.2 3.792 6.096 3.792C6.96 3.792 7.792 3.824 8.592 3.888C9.392 3.952 10.048 3.984 10.56 3.984C10.56 3.984 10.928 3.984 11.664 3.984C12.4 3.984 13.328 3.984 14.448 3.984C15.6 3.952 16.816 3.936 18.096 3.936C19.376 3.936 20.544 3.936 21.6 3.936L20.592 5.184H17.232C17.712 6.08 18.016 7.328 18.144 8.928C18.304 10.528 18.384 12.064 18.384 13.536C18.384 14.144 18.384 14.72 18.384 15.264C18.384 15.808 18.368 16.288 18.336 16.704C18.272 18.208 18.064 20.016 17.712 22.128C17.36 24.24 16.912 26.24 16.368 28.128C17.68 26.272 19.28 24.064 21.168 21.504C23.088 18.944 25.28 16.288 27.744 13.536C30.24 10.752 32.992 8.112 36 5.616C36.608 5.104 37.408 4.528 38.4 3.888C39.392 3.248 40.448 2.704 41.568 2.256C42.688 1.776 43.744 1.536 44.736 1.536C45.664 1.536 46.304 1.696 46.656 2.016C47.04 2.336 47.232 2.752 47.232 3.264C47.232 3.872 47.04 4.544 46.656 5.28C46.304 6.016 46.032 6.624 45.84 7.104C45.808 7.2 45.664 7.264 45.408 7.296C45.152 7.328 45.04 7.28 45.072 7.152C45.136 6.896 45.2 6.592 45.264 6.24C45.36 5.856 45.408 5.472 45.408 5.088C45.408 4.576 45.312 4.112 45.12 3.696C44.928 3.28 44.56 3.04 44.016 2.976C43.92 2.944 43.824 2.928 43.728 2.928C43.632 2.928 43.536 2.928 43.44 2.928C42.512 2.928 41.504 3.248 40.416 3.888C39.36 4.496 38.128 5.36 36.72 6.48C34.032 8.624 31.472 10.992 29.04 13.584C26.64 16.144 24.336 18.832 22.128 21.648C20.976 23.088 19.856 24.544 18.768 26.016C17.68 27.488 16.672 29.024 15.744 30.624C15.68 30.752 15.616 30.896 15.552 31.056C15.52 31.248 15.472 31.392 15.408 31.488C15.344 31.552 15.152 31.648 14.832 31.776C14.512 31.936 14.192 32.064 13.872 32.16C13.584 32.288 13.392 32.352 13.296 32.352ZM37.4441 11.664C36.9961 11.664 36.6761 11.52 36.4841 11.232C36.3561 11.072 36.2921 10.864 36.2921 10.608C36.2921 10.096 36.5321 9.68 37.0121 9.36C37.3641 9.168 37.6841 9.072 37.9721 9.072C38.4521 9.072 38.7881 9.216 38.9801 9.504C39.1081 9.664 39.1721 9.872 39.1721 10.128C39.1721 10.64 38.9161 11.056 38.4041 11.376C38.1161 11.568 37.7961 11.664 37.4441 11.664ZM29.0921 30.144C28.7721 30.144 28.5001 30.08 28.2761 29.952C28.0841 29.824 27.9881 29.584 27.9881 29.232C27.9881 28.784 28.1001 28.256 28.3241 27.648C28.5801 27.04 28.8521 26.432 29.1401 25.824C29.4601 25.216 29.7001 24.72 29.8601 24.336C30.0841 23.888 30.3561 23.312 30.6761 22.608C31.0281 21.872 31.3481 21.184 31.6361 20.544C31.9561 19.872 32.1801 19.408 32.3081 19.152C31.8601 19.632 31.3161 20.24 30.6761 20.976C30.0681 21.68 29.4921 22.368 28.9481 23.04C28.4041 23.712 27.9881 24.24 27.7001 24.624C27.6041 24.752 27.5241 24.816 27.4601 24.816C27.3961 24.816 27.3641 24.736 27.3641 24.576C27.3641 24.32 27.4441 24.08 27.6041 23.856C28.2121 23.088 28.8841 22.224 29.6201 21.264C30.3881 20.304 31.0761 19.424 31.6841 18.624C32.2921 17.792 32.6761 17.248 32.8361 16.992C33.1881 16.928 33.7001 16.832 34.3721 16.704C35.0761 16.576 35.5561 16.4 35.8121 16.176C35.9081 16.08 36.0041 16.032 36.1001 16.032C36.1641 16.032 36.1961 16.096 36.1961 16.224C36.2281 16.32 36.1961 16.432 36.1001 16.56C35.9081 16.784 35.5721 17.328 35.0921 18.192C34.6121 19.056 34.1001 20.016 33.5561 21.072C33.0441 22.096 32.5641 23.024 32.1161 23.856C31.6681 24.72 31.2841 25.552 30.9641 26.352C30.6441 27.152 30.4841 27.728 30.4841 28.08C30.4841 28.528 30.7081 28.752 31.1561 28.752C31.5721 28.752 32.1001 28.496 32.7401 27.984C33.4121 27.472 34.0841 26.864 34.7561 26.16C35.4281 25.424 36.0201 24.752 36.5321 24.144C36.6921 23.952 36.8841 23.728 37.1081 23.472C37.3641 23.184 37.5241 23.008 37.5881 22.944C37.6521 23.008 37.6841 23.12 37.6841 23.28C37.6521 23.504 37.5721 23.728 37.4441 23.952C37.3161 24.144 37.1881 24.32 37.0601 24.48C36.3881 25.312 35.6521 26.176 34.8521 27.072C34.0521 27.936 33.1721 28.672 32.2121 29.28C31.2521 29.856 30.2121 30.144 29.0921 30.144ZM39.8625 30.096C38.9025 30.096 38.2465 29.872 37.8945 29.424C37.5425 28.944 37.3665 28.368 37.3665 27.696C37.3665 26.8 37.5585 25.84 37.9425 24.816C38.3585 23.792 38.6945 22.992 38.9505 22.416C38.5345 22.864 38.1345 23.296 37.7505 23.712C37.3665 24.128 37.0945 24.432 36.9345 24.624C36.8385 24.752 36.7585 24.816 36.6945 24.816C36.6305 24.816 36.5985 24.736 36.5985 24.576C36.5985 24.32 36.6785 24.08 36.8385 23.856C37.2865 23.28 37.7985 22.672 38.3745 22.032C38.9505 21.392 39.5105 20.72 40.0545 20.016C40.6945 18.832 41.3985 17.456 42.1665 15.888C42.9665 14.288 43.7825 12.656 44.6145 10.992C45.4785 9.296 46.3105 7.744 47.1105 6.336C47.9425 4.896 48.6785 3.744 49.3185 2.88C49.8625 2.656 50.3745 2.368 50.8545 2.016C51.3665 1.664 51.8625 1.344 52.3425 1.056C52.8545 0.735998 53.3825 0.575998 53.9265 0.575998C54.2785 0.575998 54.5345 0.671998 54.6945 0.863997C54.8865 1.056 55.0145 1.28 55.0785 1.536C55.1105 1.632 55.1265 1.808 55.1265 2.064C55.1265 2.8 54.8705 3.696 54.3585 4.752C53.8785 5.808 53.3025 6.848 52.6305 7.872C51.9905 8.864 51.4305 9.68 50.9505 10.32C49.6705 12.112 48.3585 13.744 47.0145 15.216C45.6705 16.656 44.4545 17.872 43.3665 18.864C42.3105 19.824 41.5425 20.528 41.0625 20.976C40.8385 21.392 40.5665 21.952 40.2465 22.656C39.9585 23.328 39.7025 24.048 39.4785 24.816C39.2545 25.552 39.1425 26.24 39.1425 26.88C39.1425 27.424 39.2705 27.888 39.5265 28.272C39.7825 28.624 40.2145 28.8 40.8225 28.8C40.9185 28.8 41.0145 28.8 41.1105 28.8C41.2065 28.8 41.3185 28.784 41.4465 28.752C41.9905 28.656 42.5825 28.352 43.2225 27.84C43.8625 27.328 44.5025 26.736 45.1425 26.064C45.7825 25.392 46.3585 24.752 46.8705 24.144C47.0945 23.888 47.3025 23.648 47.4945 23.424C47.6865 23.168 47.8145 22.992 47.8785 22.896C48.1025 23.12 48.0865 23.408 47.8305 23.76C47.6065 24.08 47.4145 24.352 47.2545 24.576C47.0305 24.864 46.7105 25.264 46.2945 25.776C45.8785 26.256 45.3985 26.784 44.8545 27.36C44.2465 27.968 43.4945 28.576 42.5985 29.184C41.7025 29.792 40.7905 30.096 39.8625 30.096ZM41.8785 19.056C42.8705 18.224 44.1185 17.04 45.6225 15.504C47.1585 13.936 48.6625 12.048 50.1345 9.84C50.2945 9.584 50.5505 9.152 50.9025 8.544C51.2865 7.936 51.6705 7.248 52.0545 6.48C52.4705 5.68 52.8225 4.912 53.1105 4.176C53.3985 3.408 53.5425 2.752 53.5425 2.208C53.5425 1.696 53.3985 1.44 53.1105 1.44C52.7585 1.44 52.2945 1.744 51.7185 2.352C51.0465 3.056 50.2785 4.096 49.4145 5.472C48.5825 6.816 47.7025 8.32 46.7745 9.984C45.8465 11.648 44.9505 13.28 44.0865 14.88C43.2545 16.48 42.5185 17.872 41.8785 19.056ZM50.1281 30.096C49.1681 30.096 48.5121 29.872 48.1601 29.424C47.8081 28.944 47.6321 28.368 47.6321 27.696C47.6321 26.8 47.8241 25.84 48.2081 24.816C48.6241 23.792 48.9601 22.992 49.2161 22.416C48.8001 22.864 48.4001 23.296 48.0161 23.712C47.6321 24.128 47.3601 24.432 47.2001 24.624C47.1041 24.752 47.0241 24.816 46.9601 24.816C46.8961 24.816 46.8641 24.736 46.8641 24.576C46.8641 24.32 46.9441 24.08 47.1041 23.856C47.5521 23.28 48.0641 22.672 48.6401 22.032C49.2161 21.392 49.7761 20.72 50.3201 20.016C50.9601 18.832 51.6641 17.456 52.4321 15.888C53.2321 14.288 54.0481 12.656 54.8801 10.992C55.7441 9.296 56.5761 7.744 57.3761 6.336C58.2081 4.896 58.9441 3.744 59.5841 2.88C60.1281 2.656 60.6401 2.368 61.1201 2.016C61.6321 1.664 62.1281 1.344 62.6081 1.056C63.1201 0.735998 63.6481 0.575998 64.1921 0.575998C64.5441 0.575998 64.8001 0.671998 64.9601 0.863997C65.1521 1.056 65.2801 1.28 65.3441 1.536C65.3761 1.632 65.3921 1.808 65.3921 2.064C65.3921 2.8 65.1361 3.696 64.6241 4.752C64.1441 5.808 63.5681 6.848 62.8961 7.872C62.2561 8.864 61.6961 9.68 61.2161 10.32C59.9361 12.112 58.6241 13.744 57.2801 15.216C55.9361 16.656 54.7201 17.872 53.6321 18.864C52.5761 19.824 51.8081 20.528 51.3281 20.976C51.1041 21.392 50.8321 21.952 50.5121 22.656C50.2241 23.328 49.9681 24.048 49.7441 24.816C49.5201 25.552 49.4081 26.24 49.4081 26.88C49.4081 27.424 49.5361 27.888 49.7921 28.272C50.0481 28.624 50.4801 28.8 51.0881 28.8C51.1841 28.8 51.2801 28.8 51.3761 28.8C51.4721 28.8 51.5841 28.784 51.7121 28.752C52.2561 28.656 52.8481 28.352 53.4881 27.84C54.1281 27.328 54.7681 26.736 55.4081 26.064C56.0481 25.392 56.6241 24.752 57.1361 24.144C57.3601 23.888 57.5681 23.648 57.7601 23.424C57.9521 23.168 58.0801 22.992 58.1441 22.896C58.3681 23.12 58.3521 23.408 58.0961 23.76C57.8721 24.08 57.6801 24.352 57.5201 24.576C57.2961 24.864 56.9761 25.264 56.5601 25.776C56.1441 26.256 55.6641 26.784 55.1201 27.36C54.5121 27.968 53.7601 28.576 52.8641 29.184C51.9681 29.792 51.0561 30.096 50.1281 30.096ZM52.1441 19.056C53.1361 18.224 54.3841 17.04 55.8881 15.504C57.4241 13.936 58.9281 12.048 60.4001 9.84C60.5601 9.584 60.8161 9.152 61.1681 8.544C61.5521 7.936 61.9361 7.248 62.3201 6.48C62.7361 5.68 63.0881 4.912 63.3761 4.176C63.6641 3.408 63.8081 2.752 63.8081 2.208C63.8081 1.696 63.6641 1.44 63.3761 1.44C63.0241 1.44 62.5601 1.744 61.9841 2.352C61.3121 3.056 60.5441 4.096 59.6801 5.472C58.8481 6.816 57.9681 8.32 57.0401 9.984C56.1121 11.648 55.2161 13.28 54.3521 14.88C53.5201 16.48 52.7841 17.872 52.1441 19.056ZM63.7538 30.144C63.4338 30.144 63.1618 30.08 62.9378 29.952C62.7138 29.824 62.6018 29.584 62.6018 29.232C62.6018 28.784 62.7138 28.272 62.9378 27.696C63.1618 27.12 63.4178 26.56 63.7058 26.016C63.9938 25.44 64.2498 24.976 64.4738 24.624C63.3538 25.808 62.1858 26.928 60.9698 27.984C60.3618 28.496 59.6898 28.976 58.9538 29.424C58.2178 29.872 57.4338 30.096 56.6018 30.096C56.2818 30.096 56.0578 30 55.9298 29.808C55.8018 29.584 55.7378 29.328 55.7378 29.04C55.7378 28.88 55.7538 28.768 55.7858 28.704C55.9458 27.456 56.3458 26.16 56.9858 24.816C57.6258 23.472 58.4098 22.208 59.3378 21.024C60.2658 19.84 61.2098 18.88 62.1698 18.144C63.2578 17.312 64.4578 16.896 65.7698 16.896H71.2898C71.4498 16.896 71.5298 16.96 71.5298 17.088C71.5298 17.344 71.3858 17.472 71.0978 17.472C70.7778 17.472 70.4578 17.68 70.1378 18.096C69.8178 18.48 69.5778 18.8 69.4178 19.056C69.1938 19.408 68.8418 20 68.3618 20.832C67.8818 21.664 67.3858 22.576 66.8738 23.568C66.3938 24.528 65.9778 25.424 65.6258 26.256C65.2738 27.088 65.0978 27.696 65.0978 28.08C65.0978 28.528 65.3218 28.752 65.7698 28.752C66.2498 28.752 66.7938 28.528 67.4018 28.08C68.0098 27.632 68.6178 27.088 69.2258 26.448C69.8658 25.776 70.4418 25.12 70.9538 24.48C71.4978 23.808 71.9298 23.28 72.2498 22.896C72.4418 23.088 72.4258 23.36 72.2018 23.712C72.0098 24.032 71.8338 24.288 71.6738 24.48C71.0338 25.312 70.2978 26.176 69.4658 27.072C68.6338 27.936 67.7218 28.672 66.7298 29.28C65.7698 29.856 64.7778 30.144 63.7538 30.144ZM58.5698 28.464C58.9538 28.464 59.4818 28.192 60.1538 27.648C60.8578 27.072 61.6098 26.368 62.4098 25.536C63.2098 24.672 63.9618 23.776 64.6658 22.848C65.3698 21.888 65.9458 21.024 66.3938 20.256C66.8738 19.456 67.1138 18.848 67.1138 18.432C67.1138 18.08 67.0018 17.84 66.7778 17.712C66.5858 17.584 66.3298 17.52 66.0098 17.52C65.4978 17.52 64.9378 17.712 64.3298 18.096C63.7538 18.448 63.2898 18.8 62.9378 19.152C62.5538 19.504 62.0898 20.064 61.5458 20.832C61.0338 21.568 60.5218 22.384 60.0098 23.28C59.4978 24.176 59.0658 25.04 58.7138 25.872C58.3618 26.704 58.1858 27.376 58.1858 27.888C58.1858 28.272 58.3138 28.464 58.5698 28.464ZM62.7431 46.8C61.5271 46.8 60.3591 46.512 59.2391 45.936C58.0871 45.392 57.2391 44.544 56.6951 43.392C56.4711 42.976 56.3271 42.528 56.2631 42.048C56.1991 41.6 56.1671 41.152 56.1671 40.704V40.224C56.1671 39.968 56.1991 39.728 56.2631 39.504C56.3271 39.28 56.5031 39.168 56.7911 39.168C56.8551 39.168 56.8871 39.2 56.8871 39.264C56.8871 39.456 56.8711 39.648 56.8391 39.84C56.8071 40.032 56.7911 40.24 56.7911 40.464C56.7911 41.936 57.2711 43.056 58.2311 43.824C59.1591 44.592 60.3271 44.976 61.7351 44.976C62.3111 44.976 62.9031 44.912 63.5111 44.784C64.1191 44.656 64.6791 44.48 65.1911 44.256C67.2391 43.392 69.0151 42.144 70.5191 40.512C72.0551 38.88 73.3831 37.04 74.5031 34.992C75.6551 32.944 76.6631 30.848 77.5271 28.704C78.4231 26.528 79.2551 24.48 80.0231 22.56C79.3511 23.648 78.6151 24.624 77.8151 25.488C77.0151 26.32 76.1191 27.152 75.1271 27.984C74.5191 28.496 73.8471 28.976 73.1111 29.424C72.4071 29.872 71.6391 30.096 70.8071 30.096C70.4871 30.096 70.2631 30 70.1351 29.808C70.0071 29.584 69.9431 29.328 69.9431 29.04V28.704C70.1031 27.456 70.5031 26.16 71.1431 24.816C71.8151 23.472 72.6151 22.208 73.5431 21.024C74.4711 19.84 75.4151 18.88 76.3751 18.144C77.4631 17.312 78.6631 16.896 79.9751 16.896H85.4951C85.6551 16.896 85.7351 16.96 85.7351 17.088C85.7351 17.344 85.5911 17.472 85.3031 17.472C84.9511 17.472 84.6151 17.616 84.2951 17.904C83.9751 18.192 83.7351 18.464 83.5751 18.72C83.2551 19.232 82.8391 20.016 82.3271 21.072C81.8151 22.128 81.2551 23.344 80.6471 24.72C80.0391 26.064 79.4311 27.44 78.8231 28.848C78.2151 30.224 77.6551 31.52 77.1431 32.736C76.3751 34.56 75.4951 36.336 74.5031 38.064C73.5431 39.824 72.3911 41.392 71.0471 42.768C69.7351 44.176 68.1671 45.28 66.3431 46.08C65.2551 46.56 64.0551 46.8 62.7431 46.8ZM72.7751 28.464C73.1591 28.464 73.6871 28.192 74.3591 27.648C75.0311 27.072 75.7671 26.368 76.5671 25.536C77.3671 24.672 78.1191 23.776 78.8231 22.848C79.5271 21.888 80.1031 21.024 80.5511 20.256C81.0311 19.456 81.2711 18.848 81.2711 18.432C81.2711 18.08 81.1591 17.84 80.9351 17.712C80.7431 17.584 80.4871 17.52 80.1671 17.52C79.6551 17.52 79.1111 17.712 78.5351 18.096C77.9591 18.448 77.4951 18.8 77.1431 19.152C76.7591 19.504 76.2951 20.064 75.7511 20.832C75.2391 21.568 74.7111 22.384 74.1671 23.28C73.6551 24.176 73.2231 25.04 72.8711 25.872C72.5191 26.704 72.3431 27.376 72.3431 27.888C72.3431 28.272 72.4871 28.464 72.7751 28.464ZM86.7743 30.384C85.4623 30.384 84.5503 30.128 84.0383 29.616C83.5263 29.104 83.2703 28.48 83.2703 27.744C83.2703 26.816 83.5103 25.824 83.9902 24.768C84.5023 23.712 84.9823 22.816 85.4303 22.08C85.9423 21.312 86.6303 20.512 87.4943 19.68C88.3583 18.848 89.3023 18.144 90.3263 17.568C91.3503 16.992 92.3423 16.704 93.3023 16.704C94.1343 16.704 94.7103 16.912 95.0303 17.328C95.3503 17.712 95.5103 18.176 95.5103 18.72C95.5103 19.712 95.2063 20.528 94.5983 21.168C94.0223 21.808 93.3023 22.336 92.4383 22.752C91.5743 23.136 90.7423 23.456 89.9423 23.712C89.4623 23.84 88.9023 23.968 88.2623 24.096C87.6223 24.224 87.0143 24.288 86.4383 24.288C86.2143 24.864 86.0383 25.424 85.9103 25.968C85.7823 26.512 85.7183 27.008 85.7183 27.456C85.7183 28 85.8463 28.448 86.1023 28.8C86.3903 29.152 86.8543 29.328 87.4943 29.328C87.7503 29.328 88.0543 29.296 88.4062 29.232C88.7583 29.168 89.1423 29.072 89.5583 28.944C90.5183 28.624 91.4623 28.112 92.3903 27.408C93.3183 26.704 94.1663 25.952 94.9343 25.152C95.7343 24.32 96.3423 23.632 96.7583 23.088C96.8543 23.184 96.9023 23.296 96.9023 23.424C96.9023 23.584 96.7903 23.84 96.5663 24.192C95.9263 25.088 95.0943 26.016 94.0703 26.976C93.0463 27.936 91.9103 28.752 90.6623 29.424C89.4143 30.064 88.1183 30.384 86.7743 30.384ZM86.8223 23.328C87.2383 23.36 87.7023 23.36 88.2143 23.328C88.7583 23.264 89.2863 23.152 89.7983 22.992C91.1103 22.608 92.0543 22 92.6303 21.168C93.2383 20.304 93.5423 19.536 93.5423 18.864C93.5423 18.48 93.4623 18.16 93.3023 17.904C93.1423 17.648 92.8863 17.52 92.5343 17.52C91.6063 17.52 90.7743 17.872 90.0383 18.576C89.3023 19.248 88.6623 20.032 88.1183 20.928C87.5743 21.824 87.1423 22.624 86.8223 23.328ZM87.3994 46.8C86.1834 46.8 85.0154 46.512 83.8954 45.936C82.7434 45.392 81.8954 44.544 81.3514 43.392C81.1274 42.976 80.9834 42.528 80.9194 42.048C80.8554 41.6 80.8234 41.152 80.8234 40.704V40.224C80.8234 39.968 80.8554 39.728 80.9194 39.504C80.9834 39.28 81.1594 39.168 81.4474 39.168C81.5114 39.168 81.5434 39.2 81.5434 39.264C81.5434 39.456 81.5274 39.648 81.4954 39.84C81.4634 40.032 81.4474 40.24 81.4474 40.464C81.4474 41.936 81.9274 43.056 82.8874 43.824C83.8154 44.592 84.9834 44.976 86.3914 44.976C86.9674 44.976 87.5594 44.912 88.1674 44.784C88.7754 44.656 89.3354 44.48 89.8474 44.256C91.8954 43.392 93.6714 42.144 95.1754 40.512C96.7114 38.88 98.0394 37.04 99.1594 34.992C100.311 32.944 101.319 30.848 102.183 28.704C103.079 26.528 103.911 24.48 104.679 22.56C104.007 23.648 103.271 24.624 102.471 25.488C101.671 26.32 100.775 27.152 99.7834 27.984C99.1754 28.496 98.5034 28.976 97.7674 29.424C97.0634 29.872 96.2954 30.096 95.4634 30.096C95.1434 30.096 94.9194 30 94.7914 29.808C94.6634 29.584 94.5994 29.328 94.5994 29.04V28.704C94.7594 27.456 95.1594 26.16 95.7994 24.816C96.4714 23.472 97.2714 22.208 98.1994 21.024C99.1274 19.84 100.071 18.88 101.031 18.144C102.119 17.312 103.319 16.896 104.631 16.896H110.151C110.311 16.896 110.391 16.96 110.391 17.088C110.391 17.344 110.247 17.472 109.959 17.472C109.607 17.472 109.271 17.616 108.951 17.904C108.631 18.192 108.391 18.464 108.231 18.72C107.911 19.232 107.495 20.016 106.983 21.072C106.471 22.128 105.911 23.344 105.303 24.72C104.695 26.064 104.087 27.44 103.479 28.848C102.871 30.224 102.311 31.52 101.799 32.736C101.031 34.56 100.151 36.336 99.1594 38.064C98.1994 39.824 97.0474 41.392 95.7034 42.768C94.3914 44.176 92.8234 45.28 90.9994 46.08C89.9114 46.56 88.7114 46.8 87.3994 46.8ZM97.4314 28.464C97.8154 28.464 98.3434 28.192 99.0154 27.648C99.6874 27.072 100.423 26.368 101.223 25.536C102.023 24.672 102.775 23.776 103.479 22.848C104.183 21.888 104.759 21.024 105.207 20.256C105.687 19.456 105.927 18.848 105.927 18.432C105.927 18.08 105.815 17.84 105.591 17.712C105.399 17.584 105.143 17.52 104.823 17.52C104.311 17.52 103.767 17.712 103.191 18.096C102.615 18.448 102.151 18.8 101.799 19.152C101.415 19.504 100.951 20.064 100.407 20.832C99.8954 21.568 99.3674 22.384 98.8234 23.28C98.3114 24.176 97.8794 25.04 97.5274 25.872C97.1754 26.704 96.9994 27.376 96.9994 27.888C96.9994 28.272 97.1434 28.464 97.4314 28.464ZM108.983 30.672C108.855 30.672 108.855 30.544 108.983 30.288C109.143 30 109.287 29.68 109.415 29.328C109.575 28.976 109.735 28.592 109.895 28.176C110.215 27.408 110.567 26.544 110.951 25.584C111.335 24.624 111.703 23.696 112.055 22.8C112.407 21.872 112.711 21.088 112.967 20.448C113.255 19.776 113.447 19.344 113.543 19.152C113.095 19.632 112.551 20.24 111.911 20.976C111.303 21.68 110.727 22.368 110.183 23.04C109.639 23.712 109.223 24.24 108.935 24.624C108.839 24.752 108.759 24.816 108.695 24.816C108.631 24.816 108.599 24.736 108.599 24.576C108.599 24.32 108.679 24.08 108.839 23.856C109.447 23.088 110.119 22.224 110.855 21.264C111.623 20.304 112.311 19.424 112.919 18.624C113.527 17.792 113.911 17.248 114.071 16.992C114.423 16.928 114.935 16.832 115.607 16.704C116.311 16.576 116.791 16.4 117.047 16.176C117.143 16.08 117.239 16.032 117.335 16.032C117.399 16.032 117.431 16.096 117.431 16.224C117.463 16.32 117.431 16.432 117.335 16.56C117.143 16.752 116.855 17.168 116.471 17.808C116.119 18.448 115.719 19.184 115.271 20.016C114.823 20.848 114.391 21.648 113.975 22.416C114.295 21.936 114.711 21.376 115.223 20.736C115.767 20.064 116.359 19.424 116.999 18.816C117.639 18.176 118.279 17.648 118.919 17.232C119.591 16.816 120.215 16.608 120.791 16.608C121.207 16.608 121.559 16.704 121.847 16.896C122.135 17.056 122.359 17.36 122.519 17.808C122.615 18.032 122.663 18.288 122.663 18.576C122.663 19.12 122.519 19.648 122.231 20.16C121.975 20.64 121.783 21.008 121.655 21.264C121.623 21.36 121.511 21.456 121.319 21.552C121.127 21.616 121.047 21.584 121.079 21.456C121.111 21.296 121.127 21.136 121.127 20.976C121.159 20.816 121.174 20.64 121.174 20.448C121.174 19.904 121.062 19.408 120.839 18.96C120.647 18.512 120.279 18.288 119.734 18.288C119.223 18.288 118.599 18.608 117.863 19.248C117.127 19.888 116.391 20.624 115.655 21.456C114.727 22.544 113.991 23.584 113.447 24.576C112.903 25.536 112.455 26.48 112.103 27.408C111.911 27.92 111.719 28.432 111.527 28.944C111.335 29.424 111.191 29.808 111.095 30.096C110.679 30.128 110.263 30.224 109.847 30.384C109.431 30.576 109.143 30.672 108.983 30.672ZM128.301 30.144C127.981 30.144 127.709 30.08 127.485 29.952C127.261 29.824 127.149 29.584 127.149 29.232C127.149 28.784 127.261 28.272 127.485 27.696C127.709 27.12 127.965 26.56 128.253 26.016C128.541 25.44 128.797 24.976 129.021 24.624C127.901 25.808 126.733 26.928 125.517 27.984C124.909 28.496 124.237 28.976 123.501 29.424C122.765 29.872 121.981 30.096 121.149 30.096C120.829 30.096 120.605 30 120.477 29.808C120.349 29.584 120.285 29.328 120.285 29.04C120.285 28.88 120.301 28.768 120.333 28.704C120.493 27.456 120.893 26.16 121.533 24.816C122.173 23.472 122.957 22.208 123.885 21.024C124.813 19.84 125.757 18.88 126.717 18.144C127.805 17.312 129.005 16.896 130.317 16.896H135.837C135.997 16.896 136.077 16.96 136.077 17.088C136.077 17.344 135.933 17.472 135.645 17.472C135.325 17.472 135.005 17.68 134.685 18.096C134.365 18.48 134.125 18.8 133.965 19.056C133.741 19.408 133.389 20 132.909 20.832C132.429 21.664 131.933 22.576 131.421 23.568C130.941 24.528 130.525 25.424 130.173 26.256C129.821 27.088 129.645 27.696 129.645 28.08C129.645 28.528 129.869 28.752 130.317 28.752C130.797 28.752 131.341 28.528 131.949 28.08C132.557 27.632 133.165 27.088 133.773 26.448C134.413 25.776 134.989 25.12 135.501 24.48C136.045 23.808 136.477 23.28 136.797 22.896C136.989 23.088 136.973 23.36 136.749 23.712C136.557 24.032 136.381 24.288 136.221 24.48C135.581 25.312 134.845 26.176 134.013 27.072C133.181 27.936 132.269 28.672 131.277 29.28C130.317 29.856 129.325 30.144 128.301 30.144ZM123.117 28.464C123.501 28.464 124.029 28.192 124.701 27.648C125.405 27.072 126.157 26.368 126.957 25.536C127.757 24.672 128.509 23.776 129.213 22.848C129.917 21.888 130.493 21.024 130.941 20.256C131.421 19.456 131.661 18.848 131.661 18.432C131.661 18.08 131.549 17.84 131.325 17.712C131.133 17.584 130.877 17.52 130.557 17.52C130.045 17.52 129.485 17.712 128.877 18.096C128.301 18.448 127.837 18.8 127.485 19.152C127.101 19.504 126.637 20.064 126.093 20.832C125.581 21.568 125.069 22.384 124.557 23.28C124.045 24.176 123.613 25.04 123.261 25.872C122.909 26.704 122.733 27.376 122.733 27.888C122.733 28.272 122.861 28.464 123.117 28.464ZM136.17 30.72C136.042 30.72 136.042 30.576 136.17 30.288C136.33 30 136.474 29.68 136.602 29.328C136.762 28.976 136.922 28.592 137.082 28.176C137.402 27.408 137.754 26.544 138.138 25.584C138.522 24.624 138.89 23.696 139.242 22.8C139.594 21.872 139.898 21.088 140.154 20.448C140.442 19.776 140.634 19.344 140.73 19.152C140.282 19.632 139.738 20.24 139.098 20.976C138.49 21.68 137.914 22.368 137.37 23.04C136.826 23.712 136.41 24.24 136.122 24.624C136.026 24.752 135.946 24.816 135.882 24.816C135.818 24.816 135.786 24.736 135.786 24.576C135.786 24.32 135.866 24.08 136.026 23.856C136.634 23.088 137.306 22.224 138.042 21.264C138.81 20.304 139.498 19.424 140.106 18.624C140.714 17.792 141.098 17.248 141.258 16.992C141.61 16.928 142.122 16.832 142.794 16.704C143.498 16.576 143.978 16.4 144.234 16.176C144.33 16.08 144.426 16.032 144.522 16.032C144.586 16.032 144.618 16.096 144.618 16.224C144.65 16.32 144.618 16.432 144.522 16.56C144.33 16.784 143.994 17.312 143.514 18.144C143.066 18.944 142.57 19.84 142.026 20.832C141.514 21.824 141.034 22.72 140.586 23.52C141.098 22.912 141.594 22.336 142.074 21.792C142.586 21.248 142.938 20.864 143.13 20.64C143.514 20.256 144.042 19.776 144.714 19.2C145.386 18.624 146.09 18.096 146.826 17.616C147.562 17.136 148.202 16.864 148.746 16.8C148.874 16.768 148.986 16.752 149.082 16.752C149.178 16.752 149.274 16.752 149.37 16.752C149.978 16.752 150.282 16.976 150.282 17.424C150.282 17.616 150.234 17.84 150.138 18.096C150.042 18.352 149.914 18.608 149.754 18.864C149.562 19.248 149.242 19.856 148.794 20.688C148.346 21.488 147.946 22.224 147.594 22.896L149.85 20.64C150.234 20.256 150.762 19.776 151.434 19.2C152.106 18.624 152.81 18.096 153.546 17.616C154.282 17.136 154.922 16.864 155.466 16.8C155.594 16.768 155.706 16.752 155.802 16.752C155.93 16.752 156.026 16.752 156.09 16.752C156.794 16.752 157.146 17.008 157.146 17.52C157.146 17.904 156.938 18.416 156.522 19.056C156.298 19.408 155.946 20 155.466 20.832C154.986 21.664 154.49 22.576 153.978 23.568C153.498 24.528 153.082 25.424 152.73 26.256C152.378 27.088 152.202 27.696 152.202 28.08C152.202 28.528 152.426 28.752 152.874 28.752C153.29 28.752 153.818 28.512 154.458 28.032C155.13 27.52 155.802 26.912 156.474 26.208C157.178 25.504 157.786 24.832 158.298 24.192C158.522 23.936 158.73 23.68 158.922 23.424C159.146 23.136 159.274 22.976 159.306 22.944C159.37 23.008 159.402 23.12 159.402 23.28C159.402 23.504 159.322 23.728 159.162 23.952C159.034 24.144 158.906 24.32 158.778 24.48C158.17 25.28 157.466 26.112 156.666 26.976C155.898 27.84 155.05 28.576 154.122 29.184C153.194 29.76 152.202 30.096 151.146 30.192C150.826 30.224 150.506 30.16 150.186 30C149.866 29.84 149.706 29.584 149.706 29.232C149.706 28.784 149.818 28.256 150.042 27.648C150.298 27.04 150.57 26.432 150.858 25.824C151.178 25.216 151.418 24.72 151.578 24.336C152.154 23.216 152.682 22.16 153.162 21.168C153.642 20.176 153.978 19.472 154.17 19.056C154.266 18.864 154.314 18.704 154.314 18.576C154.314 18.352 154.138 18.336 153.786 18.528C153.434 18.72 153.002 19.008 152.49 19.392C152.01 19.776 151.562 20.16 151.146 20.544C150.73 20.896 150.458 21.136 150.33 21.264C149.786 21.808 149.13 22.544 148.362 23.472C147.626 24.4 146.938 25.376 146.298 26.4C145.658 27.392 145.21 28.32 144.954 29.184C144.634 29.472 144.33 29.616 144.042 29.616C143.818 29.616 143.626 29.536 143.466 29.376C143.338 29.216 143.274 29.024 143.274 28.8C143.274 28.16 143.466 27.408 143.85 26.544C144.266 25.648 144.602 24.912 144.858 24.336C145.434 23.216 145.962 22.16 146.442 21.168C146.922 20.176 147.258 19.472 147.45 19.056C147.546 18.864 147.594 18.704 147.594 18.576C147.594 18.352 147.418 18.336 147.066 18.528C146.714 18.72 146.282 19.008 145.77 19.392C145.29 19.776 144.842 20.16 144.426 20.544C144.01 20.896 143.738 21.136 143.61 21.264C142.842 22.064 142.122 22.88 141.45 23.712C140.81 24.544 140.266 25.44 139.818 26.4C139.562 26.976 139.29 27.616 139.002 28.32C138.714 29.024 138.474 29.616 138.282 30.096C137.866 30.128 137.45 30.24 137.034 30.432C136.618 30.624 136.33 30.72 136.17 30.72Z" fill="white"/>
</svg>
