<svg width="240" height="68" viewBox="0 0 240 68" fill="none" xmlns="http://www.w3.org/2000/svg">
<path d="M36.472 25.264C37.208 25.264 37.736 25.424 38.056 25.744C38.408 26.064 38.584 26.48 38.584 26.992C38.584 27.824 38.328 28.56 37.816 29.2C37.336 29.84 36.568 30.176 35.512 30.208C32.952 30.272 30.68 30.08 28.696 29.632C26.424 34.4 23.672 38.368 20.44 41.536C17.24 44.672 14.024 46.24 10.792 46.24C7.464 46.24 4.984 44.304 3.352 40.432C1.72 36.56 0.904 31.328 0.904 24.736C0.904 19.104 1.304 14.048 2.104 9.568C2.392 7.904 2.792 6.784 3.304 6.208C3.848 5.6 4.76 5.296 6.04 5.296C8.152 5.296 9.208 6.208 9.208 8.032C9.208 8.224 9.176 8.576 9.112 9.088C8.152 14.848 7.672 20.064 7.672 24.736C7.672 29.632 8.072 33.36 8.872 35.92C9.704 38.448 10.936 39.712 12.568 39.712C14.232 39.712 16.04 38.56 17.992 36.256C19.944 33.952 21.736 31.056 23.368 27.568C21.416 26.352 19.944 24.784 18.952 22.864C17.96 20.912 17.464 18.672 17.464 16.144C17.464 13.616 17.848 11.488 18.616 9.76C19.416 8 20.488 6.688 21.832 5.824C23.208 4.96 24.728 4.528 26.392 4.528C28.44 4.528 30.056 5.264 31.24 6.736C32.456 8.208 33.064 10.224 33.064 12.784C33.064 16.464 32.264 20.48 30.664 24.832C32.36 25.12 34.296 25.264 36.472 25.264ZM22.312 15.808C22.312 18.944 23.32 21.264 25.336 22.768C26.584 19.184 27.208 16.224 27.208 13.888C27.208 12.544 27.032 11.568 26.68 10.96C26.328 10.32 25.848 10 25.24 10C24.376 10 23.672 10.512 23.128 11.536C22.584 12.528 22.312 13.952 22.312 15.808ZM40.2014 20.464C38.8574 20.464 37.8494 20.16 37.1774 19.552C36.5054 18.912 36.1694 18.032 36.1694 16.912C36.1694 15.792 36.6014 14.864 37.4654 14.128C38.3614 13.36 39.4654 12.976 40.7774 12.976C41.9614 12.976 42.9214 13.264 43.6574 13.84C44.3934 14.416 44.7614 15.232 44.7614 16.288C44.7614 17.568 44.3454 18.592 43.5134 19.36C42.6814 20.096 41.5774 20.464 40.2014 20.464ZM39.8174 46.24C37.7374 46.24 36.2174 45.504 35.2574 44.032C34.3294 42.56 33.8654 40.608 33.8654 38.176C33.8654 36.736 34.0414 34.896 34.3934 32.656C34.7774 30.384 35.2574 28.272 35.8334 26.32C36.1214 25.296 36.5054 24.592 36.9854 24.208C37.4654 23.824 38.2334 23.632 39.2894 23.632C40.9214 23.632 41.7374 24.176 41.7374 25.264C41.7374 26.064 41.4334 27.92 40.8254 30.832C40.0574 34.352 39.6734 36.736 39.6734 37.984C39.6734 38.944 39.8014 39.68 40.0574 40.192C40.3134 40.704 40.7454 40.96 41.3534 40.96C41.9294 40.96 42.6494 40.56 43.5134 39.76C44.3774 38.96 45.5294 37.696 46.9694 35.968C47.3534 35.52 47.7854 35.296 48.2654 35.296C48.6814 35.296 49.0014 35.488 49.2254 35.872C49.4814 36.256 49.6094 36.784 49.6094 37.456C49.6094 38.736 49.3054 39.728 48.6974 40.432C45.5294 44.304 42.5694 46.24 39.8174 46.24ZM63.9179 35.296C64.3339 35.296 64.6539 35.488 64.8779 35.872C65.1339 36.256 65.2619 36.784 65.2619 37.456C65.2619 38.736 64.9579 39.728 64.3499 40.432C62.9739 42.128 61.4699 43.52 59.8379 44.608C58.2379 45.696 56.4139 46.24 54.3659 46.24C51.5499 46.24 49.4539 44.96 48.0779 42.4C46.7339 39.84 46.0619 36.528 46.0619 32.464C46.0619 28.56 46.5579 24.112 47.5499 19.12C48.5739 14.128 50.0619 9.84 52.0139 6.256C53.9979 2.672 56.3499 0.879997 59.0699 0.879997C60.6059 0.879997 61.8059 1.6 62.6699 3.04C63.5659 4.448 64.0139 6.48 64.0139 9.136C64.0139 12.944 62.9579 17.36 60.8459 22.384C58.7339 27.408 55.8699 32.384 52.2539 37.312C52.4779 38.624 52.8459 39.568 53.3579 40.144C53.8699 40.688 54.5419 40.96 55.3739 40.96C56.6859 40.96 57.8379 40.592 58.8299 39.856C59.8219 39.088 61.0859 37.792 62.6219 35.968C63.0059 35.52 63.4379 35.296 63.9179 35.296ZM58.0139 5.632C57.2779 5.632 56.4459 6.96 55.5179 9.616C54.5899 12.272 53.7739 15.568 53.0699 19.504C52.3659 23.44 51.9819 27.216 51.9179 30.832C54.1899 27.088 55.9979 23.344 57.3419 19.6C58.6859 15.824 59.3579 12.384 59.3579 9.28C59.3579 6.848 58.9099 5.632 58.0139 5.632ZM79.5741 35.296C79.9901 35.296 80.3101 35.488 80.5341 35.872C80.7901 36.256 80.9181 36.784 80.9181 37.456C80.9181 38.736 80.6141 39.728 80.0061 40.432C78.6301 42.128 77.1261 43.52 75.4941 44.608C73.8941 45.696 72.0701 46.24 70.0221 46.24C67.2061 46.24 65.1101 44.96 63.7341 42.4C62.3901 39.84 61.7181 36.528 61.7181 32.464C61.7181 28.56 62.2141 24.112 63.2061 19.12C64.2301 14.128 65.7181 9.84 67.6701 6.256C69.6541 2.672 72.0061 0.879997 74.7261 0.879997C76.2621 0.879997 77.4621 1.6 78.3261 3.04C79.2221 4.448 79.6701 6.48 79.6701 9.136C79.6701 12.944 78.6141 17.36 76.5021 22.384C74.3901 27.408 71.5261 32.384 67.9101 37.312C68.1341 38.624 68.5021 39.568 69.0141 40.144C69.5261 40.688 70.1981 40.96 71.0301 40.96C72.3421 40.96 73.4941 40.592 74.4861 39.856C75.4781 39.088 76.7421 37.792 78.2781 35.968C78.6621 35.52 79.0941 35.296 79.5741 35.296ZM73.6701 5.632C72.9341 5.632 72.1021 6.96 71.1741 9.616C70.2461 12.272 69.4301 15.568 68.7261 19.504C68.0221 23.44 67.6381 27.216 67.5741 30.832C69.8461 27.088 71.6541 23.344 72.9981 19.6C74.3421 15.824 75.0141 12.384 75.0141 9.28C75.0141 6.848 74.5661 5.632 73.6701 5.632ZM82.4736 46.24C80.4896 46.24 78.9056 45.52 77.7216 44.08C76.5376 42.64 75.9456 40.752 75.9456 38.416C75.9456 35.856 76.5376 33.44 77.7216 31.168C78.9056 28.864 80.4736 27.024 82.4256 25.648C84.4096 24.24 86.5056 23.536 88.7136 23.536C89.4176 23.536 89.8816 23.68 90.1056 23.968C90.3616 24.224 90.5696 24.704 90.7296 25.408C91.4016 25.28 92.1056 25.216 92.8416 25.216C94.4096 25.216 95.1936 25.776 95.1936 26.896C95.1936 27.568 94.9536 29.168 94.4736 31.696C93.7376 35.376 93.3696 37.936 93.3696 39.376C93.3696 39.856 93.4816 40.24 93.7056 40.528C93.9616 40.816 94.2816 40.96 94.6656 40.96C95.2736 40.96 96.0096 40.576 96.8736 39.808C97.7376 39.008 98.9056 37.728 100.378 35.968C100.762 35.52 101.194 35.296 101.674 35.296C102.09 35.296 102.41 35.488 102.634 35.872C102.89 36.256 103.018 36.784 103.018 37.456C103.018 38.736 102.714 39.728 102.106 40.432C100.794 42.064 99.4016 43.44 97.9296 44.56C96.4576 45.68 95.0336 46.24 93.6576 46.24C92.6016 46.24 91.6256 45.888 90.7296 45.184C89.8656 44.448 89.2096 43.456 88.7616 42.208C87.0976 44.896 85.0016 46.24 82.4736 46.24ZM84.2016 41.392C84.9056 41.392 85.5776 40.976 86.2176 40.144C86.8576 39.312 87.3216 38.208 87.6096 36.832L89.3856 28C88.0416 28.032 86.7936 28.544 85.6416 29.536C84.5216 30.496 83.6256 31.776 82.9536 33.376C82.2816 34.976 81.9456 36.672 81.9456 38.464C81.9456 39.456 82.1376 40.192 82.5216 40.672C82.9376 41.152 83.4976 41.392 84.2016 41.392ZM123.693 35.392C124.109 35.392 124.429 35.6 124.653 36.016C124.909 36.4 125.036 36.896 125.036 37.504C125.036 38.24 124.925 38.816 124.701 39.232C124.477 39.648 124.125 40.016 123.645 40.336C120.893 42.192 118.877 43.568 117.597 44.464L114.525 46.528C113.309 53.152 111.709 58.352 109.725 62.128C107.773 65.936 105.277 67.84 102.237 67.84C100.605 67.84 99.2765 67.328 98.2525 66.304C97.2285 65.312 96.7165 64 96.7165 62.368C96.7165 60.096 97.6125 57.648 99.4045 55.024C101.197 52.432 104.557 49.232 109.484 45.424L109.773 43.552C109.229 44.416 108.509 45.088 107.613 45.568C106.749 46.016 105.885 46.24 105.021 46.24C103.037 46.24 101.453 45.52 100.269 44.08C99.0845 42.64 98.4925 40.752 98.4925 38.416C98.4925 35.856 99.0845 33.44 100.269 31.168C101.453 28.864 103.021 27.024 104.973 25.648C106.957 24.24 109.053 23.536 111.261 23.536C111.965 23.536 112.429 23.68 112.653 23.968C112.909 24.224 113.117 24.704 113.277 25.408C113.885 25.28 114.589 25.216 115.389 25.216C116.189 25.216 116.749 25.344 117.069 25.6C117.421 25.824 117.597 26.288 117.597 26.992C117.597 27.376 117.581 27.68 117.549 27.904C117.421 28.896 117.021 31.408 116.349 35.44C116.221 36.208 116.077 37.056 115.917 37.984C115.789 38.88 115.645 39.84 115.485 40.864C117.949 38.944 120.317 37.248 122.589 35.776C123.005 35.52 123.373 35.392 123.693 35.392ZM106.749 41.392C107.485 41.392 108.189 40.944 108.861 40.048C109.533 39.152 110.013 37.872 110.301 36.208L111.837 28C110.525 28.032 109.309 28.544 108.189 29.536C107.069 30.496 106.173 31.776 105.501 33.376C104.829 34.976 104.493 36.672 104.493 38.464C104.493 39.456 104.685 40.192 105.069 40.672C105.485 41.152 106.045 41.392 106.749 41.392ZM102.765 63.184C103.565 63.184 104.461 62.224 105.453 60.304C106.477 58.384 107.453 55.328 108.381 51.136C105.917 53.248 104.141 55.152 103.053 56.848C101.965 58.544 101.421 60.032 101.421 61.312C101.421 61.856 101.517 62.304 101.709 62.656C101.933 63.008 102.285 63.184 102.765 63.184ZM143.493 35.296C143.909 35.296 144.229 35.488 144.453 35.872C144.709 36.256 144.837 36.784 144.837 37.456C144.837 38.736 144.533 39.728 143.925 40.432C142.741 41.872 141.061 43.2 138.885 44.416C136.741 45.632 134.437 46.24 131.973 46.24C128.613 46.24 126.005 45.328 124.149 43.504C122.293 41.68 121.365 39.184 121.365 36.016C121.365 33.808 121.829 31.76 122.757 29.872C123.685 27.952 124.965 26.432 126.597 25.312C128.261 24.192 130.133 23.632 132.213 23.632C134.069 23.632 135.557 24.192 136.677 25.312C137.797 26.4 138.357 27.888 138.357 29.776C138.357 31.984 137.557 33.888 135.957 35.488C134.389 37.056 131.717 38.304 127.941 39.232C128.741 40.704 130.261 41.44 132.501 41.44C133.941 41.44 135.573 40.944 137.397 39.952C139.253 38.928 140.853 37.6 142.197 35.968C142.581 35.52 143.013 35.296 143.493 35.296ZM131.397 28.336C130.213 28.336 129.205 29.024 128.373 30.4C127.573 31.776 127.173 33.44 127.173 35.392V35.488C129.061 35.04 130.549 34.368 131.637 33.472C132.725 32.576 133.269 31.536 133.269 30.352C133.269 29.744 133.093 29.264 132.741 28.912C132.421 28.528 131.973 28.336 131.397 28.336ZM165.271 35.392C165.687 35.392 166.007 35.6 166.231 36.016C166.487 36.4 166.615 36.896 166.615 37.504C166.615 38.24 166.503 38.816 166.279 39.232C166.055 39.648 165.703 40.016 165.223 40.336C162.471 42.192 160.455 43.568 159.175 44.464L156.103 46.528C154.887 53.152 153.287 58.352 151.303 62.128C149.351 65.936 146.855 67.84 143.815 67.84C142.183 67.84 140.855 67.328 139.831 66.304C138.807 65.312 138.295 64 138.295 62.368C138.295 60.096 139.191 57.648 140.983 55.024C142.775 52.432 146.135 49.232 151.063 45.424L151.351 43.552C150.807 44.416 150.087 45.088 149.191 45.568C148.327 46.016 147.463 46.24 146.599 46.24C144.615 46.24 143.031 45.52 141.847 44.08C140.663 42.64 140.071 40.752 140.071 38.416C140.071 35.856 140.663 33.44 141.847 31.168C143.031 28.864 144.599 27.024 146.551 25.648C148.535 24.24 150.631 23.536 152.839 23.536C153.543 23.536 154.007 23.68 154.231 23.968C154.487 24.224 154.695 24.704 154.855 25.408C155.463 25.28 156.167 25.216 156.967 25.216C157.767 25.216 158.327 25.344 158.647 25.6C158.999 25.824 159.175 26.288 159.175 26.992C159.175 27.376 159.159 27.68 159.127 27.904C158.999 28.896 158.599 31.408 157.927 35.44C157.799 36.208 157.655 37.056 157.495 37.984C157.367 38.88 157.223 39.84 157.063 40.864C159.527 38.944 161.895 37.248 164.167 35.776C164.583 35.52 164.951 35.392 165.271 35.392ZM148.327 41.392C149.063 41.392 149.767 40.944 150.439 40.048C151.111 39.152 151.591 37.872 151.879 36.208L153.415 28C152.103 28.032 150.887 28.544 149.767 29.536C148.647 30.496 147.751 31.776 147.079 33.376C146.407 34.976 146.071 36.672 146.071 38.464C146.071 39.456 146.263 40.192 146.647 40.672C147.063 41.152 147.623 41.392 148.327 41.392ZM144.343 63.184C145.143 63.184 146.039 62.224 147.031 60.304C148.055 58.384 149.031 55.328 149.959 51.136C147.495 53.248 145.719 55.152 144.631 56.848C143.543 58.544 142.999 60.032 142.999 61.312C142.999 61.856 143.095 62.304 143.287 62.656C143.511 63.008 143.863 63.184 144.343 63.184ZM166.556 46.24C165.34 46.24 164.476 45.6 163.964 44.32C163.484 43.04 163.244 40.992 163.244 38.176C163.244 34.016 163.836 30.064 165.02 26.32C165.308 25.392 165.772 24.72 166.412 24.304C167.084 23.856 168.012 23.632 169.196 23.632C169.836 23.632 170.284 23.712 170.54 23.872C170.796 24.032 170.924 24.336 170.924 24.784C170.924 25.296 170.684 26.448 170.204 28.24C169.884 29.52 169.628 30.64 169.436 31.6C169.244 32.56 169.084 33.744 168.956 35.152C170.012 32.4 171.196 30.16 172.508 28.432C173.82 26.704 175.1 25.472 176.348 24.736C177.628 24 178.796 23.632 179.852 23.632C181.932 23.632 182.972 24.672 182.972 26.752C182.972 27.168 182.828 28.176 182.54 29.776C182.284 31.056 182.156 31.856 182.156 32.176C182.156 33.296 182.556 33.856 183.356 33.856C184.252 33.856 185.404 33.152 186.812 31.744C187.228 31.328 187.66 31.12 188.108 31.12C188.524 31.12 188.844 31.312 189.068 31.696C189.324 32.048 189.452 32.528 189.452 33.136C189.452 34.32 189.132 35.248 188.492 35.92C187.596 36.848 186.54 37.648 185.324 38.32C184.14 38.96 182.876 39.28 181.532 39.28C179.836 39.28 178.54 38.848 177.644 37.984C176.78 37.12 176.348 35.952 176.348 34.48C176.348 34 176.396 33.52 176.492 33.04C176.556 32.4 176.588 31.968 176.588 31.744C176.588 31.232 176.412 30.976 176.06 30.976C175.58 30.976 174.94 31.52 174.14 32.608C173.372 33.664 172.604 35.072 171.836 36.832C171.068 38.592 170.444 40.448 169.964 42.4C169.612 43.904 169.196 44.928 168.716 45.472C168.268 45.984 167.548 46.24 166.556 46.24ZM190.896 46.24C188.912 46.24 187.328 45.52 186.144 44.08C184.96 42.64 184.368 40.752 184.368 38.416C184.368 35.856 184.96 33.44 186.144 31.168C187.328 28.864 188.896 27.024 190.848 25.648C192.832 24.24 194.928 23.536 197.136 23.536C197.84 23.536 198.304 23.68 198.528 23.968C198.784 24.224 198.992 24.704 199.152 25.408C199.824 25.28 200.528 25.216 201.264 25.216C202.832 25.216 203.616 25.776 203.616 26.896C203.616 27.568 203.376 29.168 202.896 31.696C202.16 35.376 201.792 37.936 201.792 39.376C201.792 39.856 201.904 40.24 202.128 40.528C202.384 40.816 202.704 40.96 203.088 40.96C203.696 40.96 204.432 40.576 205.296 39.808C206.16 39.008 207.328 37.728 208.8 35.968C209.184 35.52 209.616 35.296 210.096 35.296C210.512 35.296 210.832 35.488 211.056 35.872C211.312 36.256 211.44 36.784 211.44 37.456C211.44 38.736 211.136 39.728 210.528 40.432C209.216 42.064 207.824 43.44 206.352 44.56C204.88 45.68 203.456 46.24 202.08 46.24C201.024 46.24 200.048 45.888 199.152 45.184C198.288 44.448 197.632 43.456 197.184 42.208C195.52 44.896 193.424 46.24 190.896 46.24ZM192.624 41.392C193.328 41.392 194 40.976 194.64 40.144C195.28 39.312 195.744 38.208 196.032 36.832L197.808 28C196.464 28.032 195.216 28.544 194.064 29.536C192.944 30.496 192.048 31.776 191.376 33.376C190.704 34.976 190.368 36.672 190.368 38.464C190.368 39.456 190.56 40.192 190.944 40.672C191.36 41.152 191.92 41.392 192.624 41.392ZM210.946 46.24C209.73 46.24 208.866 45.6 208.354 44.32C207.874 43.04 207.634 40.992 207.634 38.176C207.634 34.016 208.226 30.064 209.41 26.32C209.698 25.392 210.162 24.72 210.802 24.304C211.474 23.856 212.402 23.632 213.586 23.632C214.226 23.632 214.674 23.712 214.93 23.872C215.186 24.032 215.314 24.336 215.314 24.784C215.314 25.296 215.074 26.448 214.594 28.24C214.274 29.52 214.018 30.64 213.826 31.6C213.634 32.528 213.474 33.696 213.346 35.104C214.21 32.608 215.234 30.496 216.418 28.768C217.634 27.04 218.866 25.76 220.114 24.928C221.394 24.064 222.594 23.632 223.714 23.632C224.834 23.632 225.618 23.888 226.066 24.4C226.546 24.912 226.786 25.696 226.786 26.752C226.786 27.776 226.482 29.632 225.874 32.32C225.618 33.472 225.442 34.336 225.346 34.912C226.402 32.224 227.57 30.032 228.85 28.336C230.162 26.64 231.442 25.44 232.69 24.736C233.938 24 235.09 23.632 236.146 23.632C237.17 23.632 237.938 23.904 238.45 24.448C238.994 24.96 239.266 25.728 239.266 26.752C239.266 27.584 239.09 29.152 238.738 31.456C238.418 33.408 238.162 35.264 237.97 37.024C237.778 38.752 237.682 40.688 237.682 42.832C237.682 44.048 237.426 44.928 236.914 45.472C236.434 45.984 235.634 46.24 234.514 46.24C233.458 46.24 232.69 45.968 232.21 45.424C231.73 44.88 231.49 44.064 231.49 42.976C231.49 41.696 231.714 39.584 232.162 36.64C232.546 34.08 232.738 32.448 232.738 31.744C232.738 31.232 232.562 30.976 232.21 30.976C231.794 30.976 231.202 31.52 230.434 32.608C229.666 33.664 228.898 35.072 228.13 36.832C227.362 38.592 226.738 40.448 226.258 42.4C225.906 43.936 225.49 44.96 225.01 45.472C224.562 45.984 223.826 46.24 222.802 46.24C221.746 46.24 220.946 45.744 220.402 44.752C219.89 43.728 219.634 42.496 219.634 41.056C219.634 39.84 219.794 38.08 220.114 35.776C220.37 33.728 220.498 32.384 220.498 31.744C220.498 31.232 220.322 30.976 219.97 30.976C219.49 30.976 218.882 31.552 218.146 32.704C217.41 33.856 216.69 35.328 215.986 37.12C215.314 38.912 214.77 40.672 214.354 42.4C214.002 43.904 213.586 44.928 213.106 45.472C212.658 45.984 211.938 46.24 210.946 46.24Z" fill="black"/>
</svg>
